HIERARCHY
ROOT pelvis
{
  OFFSET 0 100 0
  CHANNELS 6 Xposition Yposition Zposition Zrotation Xrotation Yrotation
  JOINT pelvis_right_femur
  {
    OFFSET -10.78128 -3.44521 -0.5502486
    CHANNELS 3 Zrotation Xrotation Yrotation
    JOINT right_femur_tibia
    {
      OFFSET -0.8047443 -44.0398 -0.1307829
      CHANNELS 3 Zrotation Xrotation Yrotation
      JOINT right_tibia_foot
      {
        OFFSET 3.006224 -47.83518 -5
        CHANNELS 3 Zrotation Xrotation Yrotation
        End Site
        {
          OFFSET 0 -5 15
        }
      }
    }
  }
  JOINT pelvis_left_femur
  {
    OFFSET 10.78128 -3.44521 -0.5502486
    CHANNELS 3 Zrotation Xrotation Yrotation
    JOINT left_femur_tibia
    {
      OFFSET 0.8047443 -44.0398 -0.1307829
      CHANNELS 3 Zrotation Xrotation Yrotation
      JOINT left_tibia_foot
      {
        OFFSET -4.370144 -48.10324 -4.275266
        CHANNELS 3 Zrotation Xrotation Yrotation
        End Site
        {
          OFFSET 0 -5 15
        }
      }
    }
  }
  JOINT pelvis_spine1
  {
    OFFSET 0 6.468898 -3.129235
    CHANNELS 3 Zrotation Xrotation Yrotation
    JOINT spine1
    {
      OFFSET 0 23.15396 4.99043
      CHANNELS 3 Zrotation Xrotation Yrotation
      JOINT spine2
      {
        OFFSET 0 20.79997 -5.064912
        CHANNELS 3 Zrotation Xrotation Yrotation
        JOINT neck
        {
          OFFSET 0 14.38658 9.616178
          CHANNELS 3 Zrotation Xrotation Yrotation
          End Site
          {
            OFFSET 0 20 0
          }
        }
      }
      JOINT right_manubrium
      {
        OFFSET -5.722621 16.35077 3.967754
        CHANNELS 3 Zrotation Xrotation Yrotation
        JOINT right_clavicle
        {
          OFFSET -13.16364 1.694482 -4.693211
          CHANNELS 3 Zrotation Xrotation Yrotation
          JOINT right_humerus
          {
            OFFSET -28.5034 -0.3100689 -2.792744
            CHANNELS 3 Zrotation Xrotation Yrotation
            JOINT right_radius
            {
              OFFSET -25.15693 0.02248979 -1.271978
              CHANNELS 3 Zrotation Xrotation Yrotation
              End Site
              {
                OFFSET -15 0 0
              }
            }
          }
        }
      }
      JOINT left_manubrium
      {
        OFFSET 5.722621 16.35077 3.967754
        CHANNELS 3 Zrotation Xrotation Yrotation
        JOINT left_clavicle
        {
          OFFSET 13.16364 1.694482 -4.693211
          CHANNELS 3 Zrotation Xrotation Yrotation
          JOINT left_humerus
          {
            OFFSET 29.39168 -1.063119 -2.237045
            CHANNELS 3 Zrotation Xrotation Yrotation
            JOINT left_radius
            {
              OFFSET 24.59957 -0.9528479 0.9047498
              CHANNELS 3 Zrotation Xrotation Yrotation
              End Site
              {
                OFFSET 15 -0 -0
              }
            }
          }
        }
      }
    }
  }
}
MOTION
Frames: 9
Frame Time: 0.0416666666667
0 103.5113 0 2.180536 -1.22012 0.2913616 1.253918 -10.03287 8.769736 -0 34.89063 -0 -5.283067 -18.00568 -2.446041 -8.036641 10.10613 -23.51897 -0 5.120409 -0 7.699022 -16.13345 26.6005 -4.331728 -5.061155 4.932607 1.999108 9.21557 -7.754222 0.8287324 22.82578 7.183379 3.255481 -23.08992 8.808469 6.375345 -19.7733 11.577 86.31189 35.94487 -19.77661 -0 0 16.27593 -7.574499 8.237683 4.623716 5.470797 -19.48446 -1.697529 -94.79092 29.75217 22.97124 0 0 -15.93461 3.492914 17.88448 9.568151
0.3212953 103.5044 1.336298 2.020457 -1.141009 0.5004993 1.551435 -10.96855 8.713282 -0 35.13195 -0 -5.363715 -17.68627 -2.589123 -7.884248 10.26851 -23.41939 -0 5.137119 -0 7.589049 -16.37525 26.46457 -4.253478 -4.879756 4.838802 2.066488 9.18988 -7.798514 0.8314619 22.74497 7.226907 3.289797 -23.20513 8.839339 6.370557 -19.744 11.58132 86.29244 35.92153 -19.80069 -0 0 16.2036 -7.606631 8.260305 4.652783 5.498161 -19.51614 -1.719252 -94.71416 29.71794 22.89203 0 0 -16.13523 3.536745 17.75701 9.552045
0.6481696 103.4511 2.762346 1.794581 -0.9610171 0.6059257 1.939517 -12.48925 8.463193 -0 33.93008 -0 -5.46383 -17.02269 -2.433302 -7.66446 10.47316 -23.20151 -0 5.202964 -0 7.374009 -16.78962 26.19318 -4.180578 -4.595315 4.769187 2.254014 9.152943 -7.841727 0.8263978 22.56793 7.305464 3.355889 -23.39878 8.871348 6.365606 -19.66362 11.60215 86.25092 35.89155 -19.88425 -0 0 16.00212 -7.645648 8.299801 4.670331 5.626992 -19.51366 -1.79567 -94.60179 29.64922 22.63952 0 0 -16.65145 3.631128 17.56822 9.472802
1.00564 103.2808 4.342515 1.547442 -0.6127974 0.5772467 2.299618 -14.45824 7.990486 -0 30.66255 -0 -5.547174 -15.86221 -1.87438 -7.484117 10.68425 -22.83501 -0 5.380742 -0 7.063922 -17.41607 25.76145 -4.170405 -4.186502 4.766553 2.518255 9.103565 -7.840614 0.8704763 22.22966 7.376114 3.473391 -23.68892 8.899722 6.332498 -19.5003 11.65231 86.21031 35.85257 -20.04206 -0 0 15.65849 -7.692889 8.357976 4.675209 5.871525 -19.55476 -1.904283 -94.38357 29.55968 22.11124 0 0 -17.55528 3.775388 17.33148 9.286483
1.405084 102.9157 6.160704 1.378609 -0.1355215 0.5115309 2.500735 -16.54039 7.350764 -0 25.49104 -0 -5.587073 -14.16406 -0.9701161 -7.431604 10.91795 -22.30687 -0 5.774886 -0 6.651104 -18.18926 25.15317 -4.214101 -3.785167 4.876006 2.788476 9.049555 -7.724976 0.9922543 21.83361 7.415353 3.634624 -24.02669 8.950862 6.216042 -19.20902 11.68846 86.23782 35.79584 -20.30728 -0 0 15.19568 -7.749723 8.435888 4.678684 6.226213 -19.70071 -1.973703 -94.01692 29.46906 21.31409 0 0 -18.75567 3.929184 17.05442 9.017459
1.862157 102.3324 8.257037 1.32057 0.4468208 0.4781204 2.501163 -18.46055 6.585471 -0 18.91282 -0 -5.587484 -12.13063 0.176513 -7.509459 11.20152 -21.61439 -0 6.421013 -0 6.106105 -19.02945 24.3164 -4.302979 -3.472179 5.016277 2.992982 8.9876 -7.561973 1.1404 21.48447 7.442831 3.812464 -24.34271 9.012096 6.019943 -18.8834 11.64584 86.34868 35.73113 -20.61907 -0 0 14.65905 -7.808407 8.53763 4.69264 6.642956 -19.90301 -1.987783 -93.53366 29.36772 20.38685 0 0 -20.04314 4.061246 16.74075 8.741079
2.356251 101.5784 10.69745 1.346257 1.122628 0.5537702 2.415551 -20.002 5.720311 -0 11.77282 -0 -5.575837 -10.15701 1.385784 -7.673566 11.56701 -20.74407 -0 7.41562 -0 5.370086 -19.80848 23.20935 -4.372013 -3.275211 5.089106 3.104053 8.922837 -7.447273 1.228172 21.24105 7.489301 3.965287 -24.5846 9.042396 5.78383 -18.51855 11.51449 86.60917 35.66355 -20.995 -0 0 14.02831 -7.851701 8.672754 4.711899 7.054562 -20.15049 -1.97856 -92.97009 29.25288 19.42812 0 0 -21.22433 4.157328 16.3992 8.535574
2.857014 100.7175 13.55516 1.34394 1.809091 0.8970446 2.390357 -20.91233 4.930893 -0 5.302744 -0 -5.63623 -8.605078 2.506335 -7.775812 11.96841 -19.73037 -0 8.95944 -0 4.359491 -20.32516 21.79607 -4.297953 -3.179827 5.045701 3.145993 8.855012 -7.431132 1.236606 21.09762 7.548845 4.070506 -24.73837 9.022665 5.560074 -18.06329 11.33103 87.04116 35.591 -21.48208 -0 0 13.27582 -7.877161 8.847741 4.731738 7.335906 -20.44019 -1.995004 -92.37764 29.13222 18.54858 0 0 -22.08101 4.17928 16.02909 8.453687
3.353586 99.89802 16.94977 1.218898 2.473597 1.615548 2.504276 -20.88617 4.340264 -0 0.6595986 -0 -5.860115 -7.64704 3.34839 -7.670566 12.33609 -18.58535 -0 11.30439 -0 2.968089 -20.25206 20.03527 -3.998385 -3.234501 4.861575 3.145404 8.746292 -7.553927 1.191072 21.00485 7.586214 4.128366 -24.83576 8.932036 5.397812 -17.56234 11.13399 87.56558 35.51549 -22.0292 -0 0 12.44147 -7.915911 9.060848 4.769852 7.348851 -20.64083 -2.070801 -91.8888 28.98764 17.93623 0 0 -22.43413 4.103324 15.62178 8.527453
